PathFileType	4	(X/Y/Z)	C:\Users\86182\Documents\cortex\Trimmed_M4_H15.trc
DataRate	CameraRate	NumFrames	NumMarkers	Units	OrigDataRate	OrigDataStartFrame	OrigNumFrames
100.00	100.00	       172	2	mm	100.00	1	       901
Frame#	Time	gripper			box			
		X1	Y1	Z1	X2	Y2	Z2	

1	0.000	277.16367	150.09772	192.27943	280.34396	147.10188	57.43599	
2	0.010	277.16211	150.09821	192.27896	280.34613	147.10356	57.43395	
3	0.020	277.16092	150.09897	192.27890	280.35010	147.10660	57.43060	
4	0.030	277.16022	150.09993	192.27910	280.35535	147.11058	57.42645	
5	0.040	277.15997	150.10078	192.27934	280.36136	147.11493	57.42210	
6	0.050	277.16025	150.10117	192.27960	280.36719	147.11885	57.41826	
7	0.060	277.16083	150.10095	192.27992	280.37167	147.12173	57.41562	
8	0.070	277.16141	150.10036	192.28035	280.37393	147.12340	57.41461	
9	0.080	277.16153	150.09978	192.28091	280.37332	147.12407	57.41546	
10	0.090	277.16104	150.09950	192.28149	280.36929	147.12395	57.41837	
11	0.100	277.16003	150.09950	192.28195	280.36160	147.12312	57.42343	
12	0.110	277.15866	150.09961	192.28227	280.35080	147.12180	57.43040	
13	0.120	277.15689	150.09976	192.28229	280.33826	147.12048	57.43851	
14	0.130	277.15466	150.10005	192.28165	280.32608	147.11977	57.44648	
15	0.140	277.15213	150.10060	192.27995	280.31689	147.11974	57.45265	
16	0.150	277.14944	150.10144	192.27721	280.31415	147.12006	57.45489	
17	0.160	277.14664	150.10243	192.27380	280.32208	147.12006	57.45047	
18	0.170	277.14377	150.10335	192.27025	280.34561	147.11896	57.43613	
19	0.180	277.14114	150.10387	192.26685	280.39020	147.11574	57.40849	
20	0.190	277.13910	150.10384	192.26387	280.46066	147.10919	57.36492	
21	0.200	277.13776	150.10347	192.26172	280.55917	147.09810	57.30473	
22	0.210	277.13690	150.10310	192.26079	280.68188	147.08211	57.23082	
23	0.220	277.13647	150.10286	192.26131	280.81384	147.06277	57.15242	
24	0.230	277.13672	150.10260	192.26320	280.92288	147.04477	57.08852	
25	0.240	277.13800	150.10214	192.26634	280.96579	147.03493	57.06427	
26	0.250	277.14026	150.10146	192.27051	280.92078	147.03720	57.09208	
27	0.260	277.14328	150.10062	192.27521	280.81021	147.04907	57.15842	
28	0.270	277.14679	150.09967	192.27968	280.67776	147.06473	57.23746	
29	0.280	277.15060	150.09868	192.28323	280.55606	147.07965	57.31013	
30	0.290	277.15442	150.09782	192.28542	280.46014	147.09171	57.36762	
31	0.300	277.15823	150.09717	192.28618	280.39386	147.10051	57.40765	
32	0.310	277.16217	150.09671	192.28607	280.35464	147.10661	57.43176	
33	0.320	277.16614	150.09645	192.28581	280.33707	147.11072	57.44334	
34	0.330	277.16974	150.09631	192.28586	280.33444	147.11319	57.44646	
35	0.340	277.17245	150.09630	192.28609	280.34012	147.11401	57.44491	
36	0.350	277.17395	150.09630	192.28607	280.34857	147.11311	57.44161	
37	0.360	277.17401	150.09625	192.28532	280.35629	147.11079	57.43839	
38	0.370	277.17291	150.09618	192.28386	280.36188	147.10783	57.43592	
39	0.380	277.17126	150.09605	192.28223	280.36575	147.10532	57.43407	
40	0.390	277.16971	150.09586	192.28102	280.36899	147.10400	57.43243	
41	0.400	277.16840	150.09552	192.28036	280.37247	147.10396	57.43074	
42	0.410	277.16724	150.09508	192.27983	280.37631	147.10460	57.42901	
43	0.420	277.16602	150.09465	192.27884	280.38010	147.10538	57.42747	
44	0.430	277.16470	150.09442	192.27705	280.38309	147.10593	57.42642	
45	0.440	277.16339	150.09453	192.27460	280.38452	147.10622	57.42609	
46	0.450	277.16226	150.09500	192.27205	280.38354	147.10646	57.42665	
47	0.460	277.16138	150.09581	192.27005	280.37952	147.10709	57.42838	
48	0.470	277.16068	150.09683	192.26894	280.37250	147.10844	57.43151	
49	0.480	277.16010	150.09790	192.26859	280.36331	147.11061	57.43597	
50	0.490	277.15961	150.09880	192.26872	280.35345	147.11322	57.44113	
51	0.500	277.15939	150.09923	192.26910	280.34491	147.11540	57.44590	
52	0.510	277.15964	150.09906	192.26956	280.34055	147.11609	57.44853	
53	0.520	277.16028	150.09853	192.27016	280.34491	147.11450	57.44631	
54	0.530	277.16104	150.09805	192.27110	280.36395	147.11031	57.43549	
55	0.540	277.16132	150.09811	192.27251	280.40399	147.10313	57.41203	
56	0.550	277.16052	150.09906	192.27428	280.47006	147.09256	57.37277	
57	0.560	277.15829	150.10117	192.27626	280.56393	147.07854	57.31650	
58	0.570	277.15485	150.10443	192.27835	280.68051	147.06235	57.24582	
59	0.580	277.15070	150.10858	192.28038	280.80319	147.04688	57.17037	
60	0.590	277.14670	150.11290	192.28217	280.89792	147.03687	57.11066	
61	0.600	277.14395	150.11659	192.28348	280.92056	147.03802	57.09378	
62	0.610	277.14322	150.11891	192.28401	280.85086	147.05247	57.13272	
63	0.620	277.14468	150.11957	192.28339	280.71661	147.07558	57.21141	
64	0.630	277.14764	150.11867	192.28152	280.57123	147.09912	57.29795	
65	0.640	277.15088	150.11699	192.27901	280.46194	147.11591	57.36386	
66	0.650	277.15259	150.11571	192.27689	280.42383	147.12061	57.38789	
67	0.660	277.15097	150.11595	192.27620	280.48499	147.10902	57.35302	
68	0.670	277.14423	150.11844	192.27794	280.66818	147.07796	57.24536	
69	0.680	277.13080	150.12357	192.28307	280.98734	147.02530	57.05641	
70	0.690	277.10925	150.13135	192.29216	281.43701	146.95146	56.78929	
71	0.700	277.07895	150.14117	192.30533	281.97543	146.86218	56.46884	
72	0.710	277.04114	150.15182	192.32239	282.51337	146.77036	56.14812	
73	0.720	276.99963	150.16151	192.34283	282.93552	146.69276	55.89542	
74	0.730	276.96091	150.16794	192.36551	283.14697	146.64310	55.76652	
75	0.740	276.93408	150.16823	192.38782	283.10089	146.62802	55.78822	
76	0.750	276.93137	150.15945	192.40521	282.79932	146.64740	55.95811	
77	0.760	276.96768	150.13869	192.41153	282.29242	146.69443	56.24535	
78	0.770	277.05978	150.10306	192.40015	281.67682	146.75569	56.59216	
79	0.780	277.22379	150.05032	192.36574	281.06738	146.81573	56.93114	
80	0.790	277.46994	149.97987	192.30612	280.55090	146.86421	57.21294	
81	0.800	277.79446	149.89417	192.22530	280.16431	146.89862	57.41882	
82	0.810	278.16757	149.80109	192.13928	279.90695	146.92139	57.55318	
83	0.820	278.52634	149.71507	192.07979	279.75989	146.93600	57.63237	
84	0.830	278.79379	149.65259	192.08574	279.69958	146.94484	57.67693	
85	0.840	278.91788	149.62354	192.18504	279.70575	146.94862	57.70731	
86	0.850	278.89471	149.62686	192.38277	279.76437	146.94690	57.74178	
87	0.860	278.76846	149.65173	192.66052	279.86710	146.93889	57.79527	
88	0.870	278.61960	149.68153	192.98225	280.00836	146.92451	57.87868	
89	0.880	278.53046	149.70120	193.30939	280.18176	146.90498	57.99866	
90	0.890	278.53506	149.70587	193.62337	280.37692	146.88306	58.15800	
91	0.900	278.59967	149.70363	193.93591	280.57700	146.86253	58.35783	
92	0.910	278.65952	149.70769	194.27338	280.75406	146.84799	58.60306	
93	0.920	278.67627	149.72438	194.64957	280.87408	146.84364	58.90288	
94	0.930	278.65799	149.74994	195.05605	280.92603	146.84937	59.25614	
95	0.940	278.62216	149.77975	195.48007	280.93909	146.85930	59.64218	
96	0.950	278.54858	149.81844	195.92700	280.95178	146.86794	60.03795	
97	0.960	278.38785	149.87657	196.41638	280.97214	146.87608	60.43839	
98	0.970	278.11734	149.95728	196.95670	280.97852	146.88882	60.85331	
99	0.980	277.77444	150.05002	197.53116	280.95853	146.90828	61.28572	
100	0.990	277.43332	150.13826	198.10841	280.93494	146.92987	61.72102	
101	1.000	277.16220	150.20926	198.66006	280.93927	146.94707	62.14402	
102	1.010	277.00394	150.25591	199.16774	280.97110	146.95828	62.55856	
103	1.020	276.97897	150.27383	199.62180	280.99744	146.96736	62.98275	
104	1.030	277.08975	150.26109	200.01965	280.99390	146.97746	63.42486	
105	1.040	277.32166	150.22060	200.36618	280.97272	146.98630	63.87161	
106	1.050	277.64008	150.16141	200.67551	280.95624	146.99036	64.30764	
107	1.060	277.99121	150.09636	200.96936	280.93747	146.99146	64.73837	
108	1.070	278.31894	150.03656	201.26915	280.88174	146.99675	65.18706	
109	1.080	278.58008	149.98915	201.59128	280.76639	147.01135	65.66862	
110	1.090	278.74573	149.95958	201.94901	280.60858	147.03288	66.17190	
111	1.100	278.81461	149.94937	202.34619	280.44467	147.05521	66.67365	
112	1.110	278.82614	149.95184	202.76863	280.30164	147.07420	67.15952	
113	1.120	278.83179	149.95650	203.19534	280.19440	147.08846	67.62721	
114	1.130	278.84680	149.95914	203.62070	280.13055	147.09784	68.07978	
115	1.140	278.84686	149.96387	204.05600	280.11066	147.10269	68.51949	
116	1.150	278.81332	149.97485	204.50897	280.12918	147.10333	68.94576	
117	1.160	278.76559	149.98944	204.97044	280.18063	147.09937	69.35647	
118	1.170	278.73889	150.00110	205.42435	280.26453	147.08995	69.74985	
119	1.180	278.74042	150.00714	205.86632	280.38370	147.07440	70.12488	
120	1.190	278.75064	150.00987	206.30328	280.53656	147.05257	70.48199	
121	1.200	278.76062	150.01122	206.73833	280.70859	147.02625	70.82592	
122	1.210	278.76907	150.01321	207.17119	280.86658	147.00119	71.17010	
123	1.220	278.74310	150.02431	207.61343	280.96802	146.98589	71.53373	
124	1.230	278.62305	150.05693	208.08725	280.99561	146.98438	71.92459	
125	1.240	278.37775	150.11649	208.60486	280.97842	146.99135	72.32912	
126	1.250	278.03973	150.19481	209.15469	280.95963	146.99823	72.72961	
127	1.260	277.68442	150.27493	209.70879	280.95154	147.00235	73.12473	
128	1.270	277.38412	150.34105	210.24013	280.93298	147.00735	73.52800	
129	1.280	277.18387	150.38383	210.73114	280.89059	147.01569	73.94698	
130	1.290	277.10422	150.39958	211.17279	280.84732	147.02368	74.37085	
131	1.300	277.15027	150.38797	211.56389	280.83615	147.02597	74.78567	
132	1.310	277.31442	150.35135	211.91153	280.85928	147.02164	75.19443	
133	1.320	277.57275	150.29488	212.22964	280.88708	147.01430	75.61397	
134	1.330	277.88589	150.22632	212.53444	280.89966	147.00638	76.05096	
135	1.340	278.21909	150.15248	212.83640	280.91599	146.99576	76.48925	
136	1.350	278.55173	150.07715	213.14038	280.96637	146.98009	76.90837	
137	1.360	278.85443	150.00549	213.45720	281.05185	146.96173	77.30608	
138	1.370	279.08258	149.94576	213.80530	281.14557	146.94620	77.69557	
139	1.380	279.20947	149.90312	214.19507	281.23361	146.93559	78.08066	
140	1.390	279.24548	149.87650	214.61967	281.33853	146.92529	78.44308	
141	1.400	279.21338	149.86320	215.06624	281.48532	146.91020	78.76568	
142	1.410	279.12552	149.86218	215.52827	281.65375	146.89314	79.06211	
143	1.420	279.00214	149.86958	215.99881	281.77335	146.88564	79.37788	
144	1.430	278.89011	149.87477	216.45982	281.77429	146.89888	79.75719	
145	1.440	278.83228	149.86720	216.89285	281.65375	146.93246	80.20316	
146	1.450	278.82251	149.84711	217.29948	281.47260	146.97432	80.68057	
147	1.460	278.81375	149.82477	217.70073	281.28528	147.01270	81.15919	
148	1.470	278.77176	149.80893	218.11502	281.10303	147.04391	81.63643	
149	1.480	278.70050	149.80023	218.54550	280.92917	147.06808	82.11553	
150	1.490	278.61380	149.79710	218.98976	280.79208	147.08322	82.58533	
151	1.500	278.50766	149.80263	219.45081	280.72079	147.08777	83.03353	
152	1.510	278.37753	149.82034	219.93018	280.70700	147.08580	83.46605	
153	1.520	278.24753	149.84615	220.41751	280.70984	147.08632	83.90324	
154	1.530	278.15674	149.87062	220.89688	280.70117	147.09555	84.35678	
155	1.540	278.11935	149.88890	221.36171	280.69437	147.11153	84.81627	
156	1.550	278.12262	149.90192	221.81418	280.71500	147.12927	85.26486	
157	1.560	278.16141	149.90933	222.25247	280.75803	147.14807	85.70112	
158	1.570	278.24042	149.90919	222.67157	280.78833	147.17097	86.13882	
159	1.580	278.34119	149.90411	223.07628	280.78467	147.19778	86.58521	
160	1.590	278.42480	149.90024	223.47984	280.76675	147.22122	87.02725	
161	1.600	278.47647	149.89914	223.88698	280.76355	147.23221	87.44837	
162	1.610	278.52524	149.89511	224.28661	280.76920	147.22658	87.85181	
163	1.620	278.60965	149.88225	224.66563	280.74490	147.20529	88.25829	
164	1.630	278.73093	149.86247	225.02725	280.66394	147.16858	88.68130	
165	1.640	278.85440	149.84335	225.38925	280.54117	147.11333	89.11381	
166	1.650	278.95184	149.82922	225.76582	280.40491	147.03951	89.54568	
167	1.660	279.01865	149.81999	226.16051	280.25864	146.95923	89.98424	
168	1.670	279.04688	149.81868	226.57758	280.08926	146.89972	90.44881	
169	1.680	279.00790	149.83374	227.02869	279.90765	146.89217	90.94545	
170	1.690	278.88019	149.87111	227.52069	279.75269	146.94711	91.45670	
171	1.700	278.67499	149.92856	228.04596	279.64810	147.04550	91.96187	
172	1.710	278.41879	150.00023	228.59084	279.58609	147.15808	92.45345	
